<svg xmlns="http://www.w3.org/2000/svg" width="17.5" height="17.5" viewBox="0 0 17.5 17.5"><defs><style>.a{fill:#fff;}</style></defs><g transform="translate(-2.119 -2.75)"><path class="a" d="M11,2.25A8.75,8.75,0,1,1,2.25,11,8.76,8.76,0,0,1,11,2.25Zm0,16A7.25,7.25,0,1,0,3.75,11,7.258,7.258,0,0,0,11,18.25Z" transform="translate(-0.131 0.5)"/><path class="a" d="M20.5,14.75a.747.747,0,0,1-.335-.079l-2.5-1.25a.75.75,0,0,1-.415-.671V9a.75.75,0,0,1,1.5,0v3.286l2.085,1.043A.75.75,0,0,1,20.5,14.75Z" transform="translate(-8.131 -0.5)"/></g></svg>