<svg xmlns="http://www.w3.org/2000/svg" width="18.001" height="18" viewBox="0 0 18.001 18">
  <path id="send" d="M-979.293-7742.485l-3.145-7.077-7.075-3.146a.817.817,0,0,1-.487-.779.82.82,0,0,1,.547-.74l16.365-5.728a.8.8,0,0,1,.269-.045h.067a.813.813,0,0,1,.493.217l.021.02.026.027.008.008.017.02.008.01.019.024.012.017.006.009a.819.819,0,0,1,.086.765l-5.717,16.332a.819.819,0,0,1-.738.547h-.033A.819.819,0,0,1-979.293-7742.485Zm.656-2.551,3.862-11.032-6.068,6.067Zm-8.328-8.328,4.965,2.206,6.066-6.065Z" transform="translate(990.001 7760)" fill="#fff"/>
</svg>
