<svg xmlns="http://www.w3.org/2000/svg" width="13.333" height="16" viewBox="0 0 13.333 16"><defs><style>.a{fill:#fff;}</style></defs><g transform="translate(-3.75 -0.75)"><path class="a" d="M10.417.75a6.674,6.674,0,0,1,6.667,6.667c0,4.966-6.04,9.05-6.3,9.221a.667.667,0,0,1-.74,0c-.257-.171-6.3-4.255-6.3-9.221A6.674,6.674,0,0,1,10.417.75Zm0,14.514c1.264-.938,5.333-4.238,5.333-7.847a5.333,5.333,0,1,0-10.667,0C5.083,11.026,9.152,14.325,10.417,15.264Z" transform="translate(0 0)"/><path class="a" d="M15.75,9.75a3,3,0,1,1-3,3A3,3,0,0,1,15.75,9.75Zm0,4.5a1.5,1.5,0,1,0-1.5-1.5A1.5,1.5,0,0,0,15.75,14.25Z" transform="translate(-5.333 -5.25)"/></g></svg>