<svg xmlns="http://www.w3.org/2000/svg" width="14" height="14" viewBox="0 0 14 14"><defs><style>.a{fill:#fff;}</style></defs><path class="a" d="M11.9,4.284A6.94,6.94,0,0,0,.984,12.656L0,16.25l3.678-.966a6.916,6.916,0,0,0,3.316.844H7a7,7,0,0,0,7-6.938,6.965,6.965,0,0,0-2.1-4.906ZM7,14.959a5.756,5.756,0,0,1-2.937-.8l-.209-.125L1.669,14.6l.581-2.128-.137-.219A5.777,5.777,0,1,1,12.828,9.191,5.831,5.831,0,0,1,7,14.959Zm3.162-4.319c-.172-.087-1.025-.506-1.184-.562s-.275-.087-.391.087-.447.563-.55.681-.2.131-.375.044A4.719,4.719,0,0,1,5.3,8.828c-.178-.306.178-.284.509-.947a.321.321,0,0,0-.016-.3c-.044-.087-.391-.941-.534-1.287s-.284-.291-.391-.3-.216-.006-.331-.006a.642.642,0,0,0-.463.216A1.948,1.948,0,0,0,3.469,7.65a3.4,3.4,0,0,0,.706,1.794,7.746,7.746,0,0,0,2.962,2.619,3.392,3.392,0,0,0,2.081.434,1.775,1.775,0,0,0,1.169-.825,1.45,1.45,0,0,0,.1-.825C10.447,10.769,10.331,10.725,10.159,10.641Z" transform="translate(0 -2.25)"/></svg>