<svg xmlns="http://www.w3.org/2000/svg" width="1920.508" height="720" viewBox="0 0 1920.508 720">
  <g id="background-covid" transform="translate(0 -4153)">
    <path id="Caminho_33" data-name="Caminho 33" d="M0,0H1920V720H0Z" transform="translate(0 4153)" fill="#f8f8f8"/>
    <path id="Subtração_3" data-name="Subtração 3" d="M478.455,573.635h0L369,573.6V11.059L375.292,0H804L478.455,573.634Z" transform="translate(-369 4153)" fill="#f2f2f2"/>
    <path id="Subtração_4" data-name="Subtração 4" d="M277,628.277h0l-307-.1L277,88.59V628.276Z" transform="translate(1643 4199)" fill="#f2f2f2"/>
    <path id="Subtração_2" data-name="Subtração 2" d="M107,123.316H52.331L20.695,94.831l12.761-60.5L92.292,15.315,138.367,56.8l-12.761,60.5L107,123.316h0Z" transform="translate(113.969 4749.684)" fill="#00a6d9"/>
    <path id="Subtração_6" data-name="Subtração 6" d="M137.861,354.384h0l-93-114.911,22.9-59.95H257.738V335.569L137.861,354.384Z" transform="translate(1662.77 3973.477)" fill="#00a6d9"/>
  </g>
</svg>
