<svg id="logo-topo" xmlns="http://www.w3.org/2000/svg" width="130" height="55" viewBox="0 0 130 55">
  <g id="Grupo_1" data-name="Grupo 1" transform="translate(0 40.64)">
    <path id="Caminho_1" data-name="Caminho 1" d="M118.65,587.954a5.1,5.1,0,0,1,1.236.352,2.273,2.273,0,0,1,.806.587,2.181,2.181,0,0,1,.438.861,4.63,4.63,0,0,1,.132,1.173v.266a3.885,3.885,0,0,1-.2,1.314,2.055,2.055,0,0,1-.689.938,3.31,3.31,0,0,1-1.283.563,8.86,8.86,0,0,1-1.986.187h-1.416q-.931,0-2.386-.03l.282-1.471q.625.016,1.1.023t.883.008H117.1a9.252,9.252,0,0,0,1.259-.07,1.965,1.965,0,0,0,.775-.251.9.9,0,0,0,.383-.485,2.49,2.49,0,0,0,.1-.774,3.639,3.639,0,0,0-.055-.688,1.033,1.033,0,0,0-.22-.477,1.171,1.171,0,0,0-.477-.32,4.438,4.438,0,0,0-.829-.219l-2.111-.344a4.769,4.769,0,0,1-1.291-.368,2.282,2.282,0,0,1-.8-.594,1.967,1.967,0,0,1-.4-.829,4.841,4.841,0,0,1-.11-1.087v-.3a3.31,3.31,0,0,1,.21-1.212,2.2,2.2,0,0,1,.689-.924,3.336,3.336,0,0,1,1.251-.586,7.7,7.7,0,0,1,1.916-.2h1.549c.26,0,.545,0,.852.008l1.119.023-.282,1.471q-1.11-.033-1.893-.032h-1.485a7.553,7.553,0,0,0-1.134.07,1.683,1.683,0,0,0-.7.251.894.894,0,0,0-.351.469,2.351,2.351,0,0,0-.094.728,3.17,3.17,0,0,0,.055.641,1.014,1.014,0,0,0,.21.454,1.164,1.164,0,0,0,.454.313,3.481,3.481,0,0,0,.782.2Z" transform="translate(-113.301 -582.542)" fill="#002d51"/>
    <path id="Caminho_2" data-name="Caminho 2" d="M173.461,607.611a1.332,1.332,0,0,1-.345,1.048,1.961,1.961,0,0,1-1.251.3h-2.346a3.647,3.647,0,0,1-2.354-.6,2.234,2.234,0,0,1-.712-1.807V606.2a2.164,2.164,0,0,1,.774-1.877,4.134,4.134,0,0,1,2.417-.563,5.725,5.725,0,0,1,1.471.149,2.762,2.762,0,0,1,.782.32v-.469a3.689,3.689,0,0,0-.055-.681.864.864,0,0,0-.266-.485,1.383,1.383,0,0,0-.61-.3,4.618,4.618,0,0,0-1.088-.1q-.656,0-1.4.007t-1.275.023l.3-1.36c.292-.011.652-.018,1.079-.024s.861-.007,1.3-.007a4.455,4.455,0,0,1,2.738.665,2.346,2.346,0,0,1,.845,1.963Zm-5.475-1.079a1.009,1.009,0,0,0,.328.821,1.949,1.949,0,0,0,1.205.273H171.9v-1.439a1.9,1.9,0,0,0-.063-.516.627.627,0,0,0-.25-.352,1.363,1.363,0,0,0-.547-.2,5.841,5.841,0,0,0-.954-.063h-.36a5.538,5.538,0,0,0-.853.055,1.312,1.312,0,0,0-.532.188.707.707,0,0,0-.274.352,1.65,1.65,0,0,0-.078.548Z" transform="translate(-157.365 -597.334)" fill="#002d51"/>
    <path id="Caminho_3" data-name="Caminho 3" d="M221.6,593.581a4.828,4.828,0,0,1-2.66-.595,2.26,2.26,0,0,1-.891-2.034v-5.709h1.642v5.382a4.44,4.44,0,0,0,.047.688.933.933,0,0,0,.235.5,1.166,1.166,0,0,0,.571.305,4.287,4.287,0,0,0,1.056.1,4.191,4.191,0,0,0,1.048-.1,1.157,1.157,0,0,0,.563-.305.926.926,0,0,0,.234-.5,4.433,4.433,0,0,0,.048-.688v-5.382h1.642v5.709a2.262,2.262,0,0,1-.891,2.034,4.792,4.792,0,0,1-2.644.595m.282-11.591h1.83l-1.83,1.971h-1.611Z" transform="translate(-200.141 -581.708)" fill="#002d51"/>
    <path id="Caminho_4" data-name="Caminho 4" d="M272.651,591.967a6.139,6.139,0,0,1-1.736-.211,2.394,2.394,0,0,1-1.126-.681,2.719,2.719,0,0,1-.6-1.212,7.758,7.758,0,0,1-.18-1.807v-.595a7.78,7.78,0,0,1,.156-1.666,2.736,2.736,0,0,1,.563-1.2,2.456,2.456,0,0,1,1.1-.728,5.416,5.416,0,0,1,1.759-.242,5.01,5.01,0,0,1,1.338.164,2.228,2.228,0,0,1,.883.43v-3.879h1.643v10.276a1.38,1.38,0,0,1-.328,1.033,1.879,1.879,0,0,1-1.267.313Zm2.159-1.346v-3.645a4.437,4.437,0,0,0-.094-1,1.124,1.124,0,0,0-.97-.923,5.6,5.6,0,0,0-1.032-.078,4.434,4.434,0,0,0-1.056.1,1.121,1.121,0,0,0-.618.375,1.556,1.556,0,0,0-.29.759,9.074,9.074,0,0,0-.07,1.251v.595a9.877,9.877,0,0,0,.07,1.314,1.625,1.625,0,0,0,.29.783,1.068,1.068,0,0,0,.625.375,5.024,5.024,0,0,0,1.08.094Z" transform="translate(-242.861 -580.345)" fill="#002d51"/>
    <path id="Caminho_5" data-name="Caminho 5" d="M323.709,604.452a6.468,6.468,0,0,0,.07,1.063,1.26,1.26,0,0,0,.281.642,1.1,1.1,0,0,0,.586.32,4.641,4.641,0,0,0,1,.086h1.15q.7,0,1.807-.032l-.282,1.362q-.486.015-.829.024c-.229,0-.441.007-.633.007h-1.213a5.3,5.3,0,0,1-1.807-.257,2.546,2.546,0,0,1-1.095-.736,2.582,2.582,0,0,1-.54-1.158,7.474,7.474,0,0,1-.14-1.509v-.876a7.812,7.812,0,0,1,.148-1.6,2.776,2.776,0,0,1,.548-1.2,2.53,2.53,0,0,1,1.11-.759,5.391,5.391,0,0,1,1.854-.266,5.076,5.076,0,0,1,1.713.242,2.625,2.625,0,0,1,1.048.658,2.2,2.2,0,0,1,.524.953,4.4,4.4,0,0,1,.141,1.119v.235a5.016,5.016,0,0,1-.063.891,1.192,1.192,0,0,1-.2.508.647.647,0,0,1-.352.235,2.085,2.085,0,0,1-.508.055Zm1.939-3.6a4.307,4.307,0,0,0-1,.094,1.063,1.063,0,0,0-.586.352,1.46,1.46,0,0,0-.281.712,7.94,7.94,0,0,0-.07,1.173H327.6v-.532a3.7,3.7,0,0,0-.086-.868,1.06,1.06,0,0,0-.313-.556,1.337,1.337,0,0,0-.6-.289,4.372,4.372,0,0,0-.954-.086" transform="translate(-287.01 -596.271)" fill="#002d51"/>
    <path id="Caminho_6" data-name="Caminho 6" d="M399.751,593.155a7.393,7.393,0,0,1-2.418-.329,3.166,3.166,0,0,1-1.455-.978,3.631,3.631,0,0,1-.712-1.611,11.84,11.84,0,0,1-.188-2.229v-1.423a11.73,11.73,0,0,1,.181-2.159,3.711,3.711,0,0,1,.7-1.619,3.206,3.206,0,0,1,1.446-1.016,7.033,7.033,0,0,1,2.448-.353,7.422,7.422,0,0,1,2.417.328,3.184,3.184,0,0,1,1.455.978,3.627,3.627,0,0,1,.711,1.611,11.761,11.761,0,0,1,.188,2.23v1.423a11.735,11.735,0,0,1-.18,2.159,3.712,3.712,0,0,1-.7,1.619A3.215,3.215,0,0,1,402.2,592.8a7.06,7.06,0,0,1-2.448.353m0-1.424a7.1,7.1,0,0,0,1.525-.133,1.653,1.653,0,0,0,.931-.54,2.356,2.356,0,0,0,.47-1.15,12.286,12.286,0,0,0,.125-1.963v-1.3a12.167,12.167,0,0,0-.125-1.947,2.365,2.365,0,0,0-.47-1.15,1.7,1.7,0,0,0-.931-.548,6.754,6.754,0,0,0-1.525-.14,7.1,7.1,0,0,0-1.526.133,1.649,1.649,0,0,0-.93.54,2.36,2.36,0,0,0-.469,1.15,12.242,12.242,0,0,0-.126,1.963v1.3a12.126,12.126,0,0,0,.126,1.947,2.364,2.364,0,0,0,.469,1.15,1.7,1.7,0,0,0,.93.548,6.762,6.762,0,0,0,1.526.14" transform="translate(-347.695 -581.251)" fill="#002d51"/>
    <path id="Caminho_7" data-name="Caminho 7" d="M463.34,602.2a6.328,6.328,0,0,0-1.048.07,1.133,1.133,0,0,0-.641.313,1.322,1.322,0,0,0-.32.7,6.749,6.749,0,0,0-.086,1.221v.828a6.328,6.328,0,0,0,.093,1.22,1.354,1.354,0,0,0,.336.7,1.166,1.166,0,0,0,.649.313,6.146,6.146,0,0,0,1.017.071q.861,0,1.353-.008t.868-.023l-.282,1.361q-.408.015-.97.024t-.969.007a7.114,7.114,0,0,1-1.768-.187,2.53,2.53,0,0,1-1.166-.626,2.5,2.5,0,0,1-.641-1.134,6.415,6.415,0,0,1-.2-1.713V604.5a6.426,6.426,0,0,1,.2-1.714,2.5,2.5,0,0,1,.641-1.133,2.531,2.531,0,0,1,1.166-.626,7.1,7.1,0,0,1,1.768-.188q.453,0,1.04.008t1.151.039l-.282,1.361q-.641-.031-1.079-.038c-.292-.005-.569-.008-.829-.008" transform="translate(-401.413 -597.331)" fill="#002d51"/>
    <path id="Caminho_8" data-name="Caminho 8" d="M507.306,609.356a4.822,4.822,0,0,1-2.659-.594,2.261,2.261,0,0,1-.891-2.034v-5.709H505.4V606.4a4.5,4.5,0,0,0,.047.689.943.943,0,0,0,.234.5,1.165,1.165,0,0,0,.571.3,4.28,4.28,0,0,0,1.056.1,4.18,4.18,0,0,0,1.048-.1,1.155,1.155,0,0,0,.563-.3.923.923,0,0,0,.235-.5,4.452,4.452,0,0,0,.047-.689v-5.381h1.643v5.709a2.261,2.261,0,0,1-.892,2.034,4.788,4.788,0,0,1-2.643.594" transform="translate(-438.189 -597.484)" fill="#002d51"/>
    <path id="Caminho_9" data-name="Caminho 9" d="M559.544,599.554a6.985,6.985,0,0,1,1.7.18,2.415,2.415,0,0,1,1.15.634,2.682,2.682,0,0,1,.649,1.212,7.6,7.6,0,0,1,.2,1.917v.7a8.323,8.323,0,0,1-.165,1.775,2.706,2.706,0,0,1-.578,1.22,2.477,2.477,0,0,1-1.134.712,6.059,6.059,0,0,1-1.846.235,3.733,3.733,0,0,1-1.244-.181,2.412,2.412,0,0,1-.821-.46v3.128H555.8v-7.211a6.883,6.883,0,0,1,.211-1.854,2.649,2.649,0,0,1,.665-1.189,2.557,2.557,0,0,1,1.158-.633,6.707,6.707,0,0,1,1.705-.188m-.016,7.242a4.814,4.814,0,0,0,1.056-.094,1.1,1.1,0,0,0,.625-.376,1.593,1.593,0,0,0,.3-.79,10.138,10.138,0,0,0,.07-1.337v-.7a9.441,9.441,0,0,0-.078-1.369,1.592,1.592,0,0,0-.3-.783,1.086,1.086,0,0,0-.627-.359,6.242,6.242,0,0,0-2.072,0,1.137,1.137,0,0,0-.641.352,1.52,1.52,0,0,0-.321.758,8.021,8.021,0,0,0-.086,1.322v1.111a5.56,5.56,0,0,0,.094,1.125,1.472,1.472,0,0,0,.328.7,1.212,1.212,0,0,0,.642.352,4.649,4.649,0,0,0,1.016.094" transform="translate(-481.501 -596.269)" fill="#002d51"/>
    <path id="Caminho_10" data-name="Caminho 10" d="M614.226,607.611a1.333,1.333,0,0,1-.344,1.048,1.962,1.962,0,0,1-1.251.3h-2.346a3.647,3.647,0,0,1-2.354-.6,2.234,2.234,0,0,1-.712-1.807V606.2a2.164,2.164,0,0,1,.775-1.877,4.134,4.134,0,0,1,2.417-.563,5.726,5.726,0,0,1,1.471.149,2.761,2.761,0,0,1,.782.32v-.469a3.686,3.686,0,0,0-.055-.681.863.863,0,0,0-.266-.485,1.383,1.383,0,0,0-.61-.3,4.619,4.619,0,0,0-1.088-.1q-.656,0-1.4.007t-1.275.023l.3-1.36c.292-.011.652-.018,1.079-.024s.861-.007,1.3-.007a4.455,4.455,0,0,1,2.738.665,2.346,2.346,0,0,1,.845,1.963Zm-5.475-1.079a1.009,1.009,0,0,0,.328.821,1.95,1.95,0,0,0,1.205.273h2.377v-1.439a1.9,1.9,0,0,0-.063-.516.627.627,0,0,0-.25-.352,1.362,1.362,0,0,0-.547-.2,5.845,5.845,0,0,0-.954-.063h-.36a5.539,5.539,0,0,0-.853.055,1.311,1.311,0,0,0-.532.188.709.709,0,0,0-.274.352,1.65,1.65,0,0,0-.078.548Z" transform="translate(-524.276 -597.334)" fill="#002d51"/>
    <path id="Caminho_11" data-name="Caminho 11" d="M661.49,602.2a6.328,6.328,0,0,0-1.048.07,1.134,1.134,0,0,0-.641.313,1.321,1.321,0,0,0-.32.7,6.731,6.731,0,0,0-.086,1.221v.828a6.33,6.33,0,0,0,.093,1.22,1.353,1.353,0,0,0,.336.7,1.165,1.165,0,0,0,.649.313,6.148,6.148,0,0,0,1.018.071q.861,0,1.353-.008t.868-.023l-.282,1.361q-.408.015-.97.024t-.97.007a7.112,7.112,0,0,1-1.767-.187,2.53,2.53,0,0,1-1.166-.626,2.5,2.5,0,0,1-.641-1.134,6.408,6.408,0,0,1-.2-1.713V604.5a6.419,6.419,0,0,1,.2-1.714,2.5,2.5,0,0,1,.641-1.133,2.531,2.531,0,0,1,1.166-.626,7.1,7.1,0,0,1,1.767-.188c.3,0,.65,0,1.04.008s.774.018,1.15.039l-.282,1.361q-.641-.031-1.079-.038c-.292-.005-.569-.008-.829-.008" transform="translate(-566.284 -597.331)" fill="#002d51"/>
    <path id="Caminho_12" data-name="Caminho 12" d="M702.691,582.018a.882.882,0,1,1-.243-.79,1.081,1.081,0,0,1,.243.79m-1.846,2.393h1.642V592.5h-1.642Z" transform="translate(-601.931 -580.875)" fill="#002d51"/>
    <path id="Caminho_13" data-name="Caminho 13" d="M724.794,599.556a7.125,7.125,0,0,1,1.729.18,2.5,2.5,0,0,1,1.165.625,2.644,2.644,0,0,1,.665,1.189,6.985,6.985,0,0,1,.211,1.869v.861a6.989,6.989,0,0,1-.211,1.869,2.635,2.635,0,0,1-.665,1.188,2.488,2.488,0,0,1-1.165.626,8.4,8.4,0,0,1-3.458,0,2.5,2.5,0,0,1-1.166-.626,2.636,2.636,0,0,1-.664-1.188,6.951,6.951,0,0,1-.211-1.869v-.861a6.947,6.947,0,0,1,.211-1.869,2.645,2.645,0,0,1,.664-1.189,2.5,2.5,0,0,1,1.166-.625,7.108,7.108,0,0,1,1.729-.18m2.1,3.863a7.987,7.987,0,0,0-.086-1.321,1.565,1.565,0,0,0-.312-.759,1.106,1.106,0,0,0-.633-.352,6.6,6.6,0,0,0-2.128,0,1.1,1.1,0,0,0-.633.352,1.557,1.557,0,0,0-.312.759,7.9,7.9,0,0,0-.086,1.321v.861a7.9,7.9,0,0,0,.086,1.321,1.56,1.56,0,0,0,.312.759,1.1,1.1,0,0,0,.633.352,6.667,6.667,0,0,0,2.128,0,1.105,1.105,0,0,0,.633-.352,1.569,1.569,0,0,0,.312-.759,7.987,7.987,0,0,0,.086-1.321Z" transform="translate(-618.978 -596.271)" fill="#002d51"/>
    <path id="Caminho_14" data-name="Caminho 14" d="M774.631,607.892v-5.71a2.291,2.291,0,0,1,.868-2.017,6.341,6.341,0,0,1,5.427,0,2.291,2.291,0,0,1,.869,2.017v5.71h-1.642v-5.381a4.567,4.567,0,0,0-.047-.689.935.935,0,0,0-.235-.5,1.168,1.168,0,0,0-.578-.3,5.781,5.781,0,0,0-2.16,0,1.17,1.17,0,0,0-.578.3.94.94,0,0,0-.235.5,4.459,4.459,0,0,0-.047.689v5.381Z" transform="translate(-663.793 -596.269)" fill="#002d51"/>
    <path id="Caminho_15" data-name="Caminho 15" d="M832.5,607.611a1.333,1.333,0,0,1-.344,1.048,1.963,1.963,0,0,1-1.251.3h-2.346a3.647,3.647,0,0,1-2.354-.6,2.234,2.234,0,0,1-.712-1.807V606.2a2.165,2.165,0,0,1,.774-1.877,4.135,4.135,0,0,1,2.417-.563,5.724,5.724,0,0,1,1.47.149,2.758,2.758,0,0,1,.782.32v-.469a3.675,3.675,0,0,0-.055-.681.862.862,0,0,0-.266-.485,1.381,1.381,0,0,0-.61-.3,4.616,4.616,0,0,0-1.087-.1q-.656,0-1.4.007t-1.274.023l.3-1.36c.293-.011.652-.018,1.079-.024s.861-.007,1.3-.007a4.454,4.454,0,0,1,2.738.665,2.346,2.346,0,0,1,.845,1.963Zm-5.475-1.079a1.009,1.009,0,0,0,.328.821,1.95,1.95,0,0,0,1.205.273h2.377v-1.439a1.9,1.9,0,0,0-.063-.516.626.626,0,0,0-.25-.352,1.362,1.362,0,0,0-.547-.2,5.842,5.842,0,0,0-.954-.063h-.36a5.535,5.535,0,0,0-.853.055,1.312,1.312,0,0,0-.532.188.707.707,0,0,0-.274.352,1.65,1.65,0,0,0-.078.548Z" transform="translate(-705.957 -597.334)" fill="#002d51"/>
    <rect id="Ret창ngulo_2" data-name="Ret창ngulo 2" width="1.642" height="11.622" transform="translate(128.358 0)" fill="#002d51"/>
  </g>
  <g id="Grupo_2" data-name="Grupo 2" transform="translate(22.337)">
    <rect id="Ret창ngulo_3" data-name="Ret창ngulo 3" width="31.454" height="31.454" transform="translate(0 0)" fill="#00aae7"/>
    <path id="Caminho_16" data-name="Caminho 16" d="M324.842,361.157h-8.918v-20.17l-2.576,2.7v20.048h14.072Z" transform="translate(-301.987 -340.078)" fill="#fff"/>
    <path id="Caminho_17" data-name="Caminho 17" d="M332.139,382.547v2.577h8.707v10.011l2.576,2.577V382.547Z" transform="translate(-317.566 -374.532)" fill="#fff"/>
    <path id="Caminho_18" data-name="Caminho 18" d="M279.65,404.241l2.576-2.7V385.125h2.548v-2.577H279.65Z" transform="translate(-274.051 -374.533)" fill="#fff"/>
  </g>
  <g id="Grupo_3" data-name="Grupo 3" transform="translate(61.351 0)">
    <path id="Caminho_19" data-name="Caminho 19" d="M486.359,354.846v12.281H481.72V335.672h11.84q5.785,0,8.3,2.165t2.518,6.45v1.944q0,4.55-2.65,6.582t-8.173,2.033Zm13.385-9.851a8.561,8.561,0,0,0-.331-2.607,3.241,3.241,0,0,0-1.06-1.59,4.147,4.147,0,0,0-1.9-.774,17.718,17.718,0,0,0-2.894-.2h-7.2v10.868h7.2a17.849,17.849,0,0,0,2.894-.2,4.138,4.138,0,0,0,1.9-.775,3.234,3.234,0,0,0,1.06-1.59,8.553,8.553,0,0,0,.331-2.606Z" transform="translate(-481.72 -335.672)" fill="#00aae7"/>
    <path id="Caminho_20" data-name="Caminho 20" d="M637.323,335.673v27.3h15.948l-.839,4.152H632.685V335.673Z" transform="translate(-606.872 -335.673)" fill="#00aae7"/>
  </g>
</svg>
