<svg xmlns="http://www.w3.org/2000/svg" width="160" height="68" viewBox="0 0 160 68"><defs><style>.a{fill:#fff;}.b{fill:#00aae7;}</style></defs><g transform="translate(0 50.019)"><path class="a" d="M119.885,589.1a6.275,6.275,0,0,1,1.521.433,2.8,2.8,0,0,1,.992.722,2.683,2.683,0,0,1,.539,1.059,5.7,5.7,0,0,1,.163,1.444v.328a4.782,4.782,0,0,1-.249,1.617,2.529,2.529,0,0,1-.848,1.155,4.073,4.073,0,0,1-1.578.693,10.9,10.9,0,0,1-2.444.23h-1.742q-1.146,0-2.936-.037l.347-1.81q.769.02,1.357.029t1.087.01h1.887a11.383,11.383,0,0,0,1.55-.086,2.418,2.418,0,0,0,.953-.309,1.113,1.113,0,0,0,.471-.6,3.064,3.064,0,0,0,.125-.953,4.479,4.479,0,0,0-.068-.847,1.271,1.271,0,0,0-.27-.587,1.44,1.44,0,0,0-.587-.394,5.463,5.463,0,0,0-1.021-.27l-2.6-.423a5.87,5.87,0,0,1-1.589-.453,2.81,2.81,0,0,1-.982-.732,2.421,2.421,0,0,1-.49-1.021,5.958,5.958,0,0,1-.135-1.338V586.6a4.074,4.074,0,0,1,.259-1.491,2.7,2.7,0,0,1,.848-1.137,4.107,4.107,0,0,1,1.54-.722,9.482,9.482,0,0,1,2.358-.25h1.906c.32,0,.671,0,1.048.01s.838.017,1.377.029l-.347,1.81q-1.366-.04-2.33-.039h-1.828a9.3,9.3,0,0,0-1.4.086,2.07,2.07,0,0,0-.867.309,1.1,1.1,0,0,0-.432.577,2.894,2.894,0,0,0-.116.9,3.9,3.9,0,0,0,.068.788,1.248,1.248,0,0,0,.259.559,1.434,1.434,0,0,0,.559.385,4.287,4.287,0,0,0,.962.25Z" transform="translate(-113.301 -582.437)"/><path class="a" d="M175.078,609.174a1.64,1.64,0,0,1-.424,1.29,2.414,2.414,0,0,1-1.54.365h-2.887a4.489,4.489,0,0,1-2.9-.74,2.75,2.75,0,0,1-.877-2.224v-.423a2.664,2.664,0,0,1,.953-2.311,5.089,5.089,0,0,1,2.975-.693,7.044,7.044,0,0,1,1.81.183,3.4,3.4,0,0,1,.962.394v-.577a4.538,4.538,0,0,0-.068-.838,1.063,1.063,0,0,0-.328-.6,1.7,1.7,0,0,0-.751-.366,5.685,5.685,0,0,0-1.339-.125q-.807,0-1.722.009t-1.569.029l.366-1.674c.36-.013.8-.022,1.328-.03s1.059-.009,1.6-.009a5.483,5.483,0,0,1,3.37.818,2.887,2.887,0,0,1,1.04,2.416Zm-6.739-1.328a1.242,1.242,0,0,0,.4,1.011,2.4,2.4,0,0,0,1.483.336h2.926v-1.771a2.337,2.337,0,0,0-.078-.635.772.772,0,0,0-.308-.433,1.677,1.677,0,0,0-.673-.24,7.193,7.193,0,0,0-1.175-.077h-.443a6.815,6.815,0,0,0-1.05.068,1.616,1.616,0,0,0-.654.231.871.871,0,0,0-.338.433,2.03,2.03,0,0,0-.1.674Z" transform="translate(-155.268 -596.525)"/><path class="a" d="M222.422,596.256a5.942,5.942,0,0,1-3.274-.732,2.781,2.781,0,0,1-1.1-2.5v-7.027h2.021v6.624a5.465,5.465,0,0,0,.058.847,1.149,1.149,0,0,0,.289.616,1.435,1.435,0,0,0,.7.375,5.276,5.276,0,0,0,1.3.125,5.157,5.157,0,0,0,1.29-.125,1.423,1.423,0,0,0,.693-.375,1.14,1.14,0,0,0,.288-.616,5.453,5.453,0,0,0,.059-.847v-6.624h2.021v7.027a2.784,2.784,0,0,1-1.1,2.5,5.9,5.9,0,0,1-3.254.732m.347-14.266h2.252l-2.252,2.426h-1.983Z" transform="translate(-196.008 -581.643)"/><path class="a" d="M273.492,594.649a7.554,7.554,0,0,1-2.137-.26,2.947,2.947,0,0,1-1.386-.838,3.345,3.345,0,0,1-.742-1.491,9.549,9.549,0,0,1-.221-2.224V589.1a9.576,9.576,0,0,1,.193-2.05,3.368,3.368,0,0,1,.693-1.472,3.023,3.023,0,0,1,1.357-.9,6.664,6.664,0,0,1,2.165-.3,6.167,6.167,0,0,1,1.647.2,2.743,2.743,0,0,1,1.087.529v-4.774h2.022v12.648a1.7,1.7,0,0,1-.4,1.271,2.314,2.314,0,0,1-1.56.385Zm2.657-1.656v-4.486a5.46,5.46,0,0,0-.115-1.232,1.384,1.384,0,0,0-1.194-1.136,6.888,6.888,0,0,0-1.27-.1,5.459,5.459,0,0,0-1.3.125,1.38,1.38,0,0,0-.76.462,1.915,1.915,0,0,0-.357.934,11.167,11.167,0,0,0-.086,1.54v.732a12.154,12.154,0,0,0,.086,1.617,2,2,0,0,0,.357.963,1.314,1.314,0,0,0,.769.461,6.19,6.19,0,0,0,1.329.115Z" transform="translate(-236.827 -580.345)"/><path class="a" d="M324.088,605.582a7.955,7.955,0,0,0,.087,1.309,1.55,1.55,0,0,0,.346.791,1.35,1.35,0,0,0,.722.394,5.709,5.709,0,0,0,1.232.106h1.415q.857,0,2.224-.04l-.347,1.676q-.6.019-1.021.029c-.282.005-.543.009-.779.009h-1.492a6.524,6.524,0,0,1-2.224-.317,3.135,3.135,0,0,1-1.347-.905,3.179,3.179,0,0,1-.664-1.425,9.2,9.2,0,0,1-.173-1.858v-1.078a9.612,9.612,0,0,1,.183-1.972,3.418,3.418,0,0,1,.674-1.483,3.114,3.114,0,0,1,1.366-.934,6.635,6.635,0,0,1,2.282-.327,6.248,6.248,0,0,1,2.108.3,3.231,3.231,0,0,1,1.29.809,2.712,2.712,0,0,1,.645,1.173,5.413,5.413,0,0,1,.174,1.377v.289a6.17,6.17,0,0,1-.077,1.1,1.466,1.466,0,0,1-.25.626.8.8,0,0,1-.433.289,2.568,2.568,0,0,1-.625.067Zm2.387-4.428a5.3,5.3,0,0,0-1.232.115,1.308,1.308,0,0,0-.722.434,1.8,1.8,0,0,0-.346.876,9.765,9.765,0,0,0-.087,1.444h4.794v-.654a4.556,4.556,0,0,0-.106-1.068,1.3,1.3,0,0,0-.385-.684,1.646,1.646,0,0,0-.741-.355,5.384,5.384,0,0,0-1.175-.106" transform="translate(-278.92 -595.513)"/><path class="a" d="M400.852,595.859a9.1,9.1,0,0,1-2.976-.405,3.9,3.9,0,0,1-1.79-1.2,4.469,4.469,0,0,1-.876-1.983,14.57,14.57,0,0,1-.231-2.743v-1.751a14.438,14.438,0,0,1,.222-2.657,4.568,4.568,0,0,1,.857-1.993,3.946,3.946,0,0,1,1.78-1.251,8.656,8.656,0,0,1,3.013-.434,9.136,9.136,0,0,1,2.975.4,3.92,3.92,0,0,1,1.79,1.2,4.464,4.464,0,0,1,.876,1.983,14.476,14.476,0,0,1,.231,2.744v1.751a14.444,14.444,0,0,1-.221,2.657,4.568,4.568,0,0,1-.857,1.993,3.957,3.957,0,0,1-1.78,1.251,8.69,8.69,0,0,1-3.013.434m0-1.753a8.737,8.737,0,0,0,1.876-.164,2.034,2.034,0,0,0,1.146-.664,2.9,2.9,0,0,0,.578-1.415,15.122,15.122,0,0,0,.154-2.416v-1.6a14.977,14.977,0,0,0-.154-2.4,2.911,2.911,0,0,0-.578-1.415,2.092,2.092,0,0,0-1.146-.674,8.315,8.315,0,0,0-1.876-.173,8.735,8.735,0,0,0-1.878.164,2.029,2.029,0,0,0-1.145.664,2.905,2.905,0,0,0-.578,1.415,15.065,15.065,0,0,0-.155,2.416v1.6a14.922,14.922,0,0,0,.155,2.4,2.909,2.909,0,0,0,.578,1.415,2.087,2.087,0,0,0,1.145.674,8.321,8.321,0,0,0,1.878.173" transform="translate(-336.784 -581.208)"/><path class="a" d="M464.21,602.51a7.78,7.78,0,0,0-1.29.087,1.394,1.394,0,0,0-.789.385,1.627,1.627,0,0,0-.394.857,8.307,8.307,0,0,0-.106,1.5v1.02a7.788,7.788,0,0,0,.114,1.5,1.667,1.667,0,0,0,.414.857,1.435,1.435,0,0,0,.8.385,7.568,7.568,0,0,0,1.252.088q1.059,0,1.665-.01t1.068-.029l-.347,1.675q-.5.019-1.193.029t-1.193.009a8.754,8.754,0,0,1-2.176-.23,3.115,3.115,0,0,1-1.435-.771,3.078,3.078,0,0,1-.789-1.4,7.894,7.894,0,0,1-.24-2.108v-1.02a7.907,7.907,0,0,1,.24-2.109,3.082,3.082,0,0,1,.789-1.395,3.115,3.115,0,0,1,1.435-.77,8.738,8.738,0,0,1,2.176-.231q.558,0,1.28.01t1.416.048l-.347,1.675q-.789-.038-1.327-.047c-.36-.007-.7-.01-1.021-.01" transform="translate(-387.993 -596.523)"/><path class="a" d="M508.126,611.28a5.934,5.934,0,0,1-3.272-.732,2.782,2.782,0,0,1-1.1-2.5v-7.026h2.021v6.622a5.538,5.538,0,0,0,.057.848,1.161,1.161,0,0,0,.288.616,1.434,1.434,0,0,0,.7.375,5.266,5.266,0,0,0,1.3.125,5.144,5.144,0,0,0,1.29-.125,1.421,1.421,0,0,0,.693-.375,1.136,1.136,0,0,0,.289-.616,5.483,5.483,0,0,0,.058-.848v-6.622h2.023v7.026a2.783,2.783,0,0,1-1.1,2.5,5.892,5.892,0,0,1-3.253.732" transform="translate(-423.058 -596.668)"/><path class="a" d="M560.407,599.554a8.6,8.6,0,0,1,2.1.221,2.972,2.972,0,0,1,1.415.781,3.3,3.3,0,0,1,.8,1.491,9.348,9.348,0,0,1,.25,2.359v.866a10.241,10.241,0,0,1-.2,2.185,3.33,3.33,0,0,1-.712,1.5,3.05,3.05,0,0,1-1.4.877,7.456,7.456,0,0,1-2.272.289,4.6,4.6,0,0,1-1.531-.223,2.968,2.968,0,0,1-1.011-.567v3.85H555.8V604.31a8.469,8.469,0,0,1,.26-2.282,3.259,3.259,0,0,1,.818-1.464,3.148,3.148,0,0,1,1.425-.779,8.255,8.255,0,0,1,2.1-.231m-.02,8.914a5.923,5.923,0,0,0,1.3-.115,1.347,1.347,0,0,0,.77-.463,1.96,1.96,0,0,0,.366-.972,12.476,12.476,0,0,0,.086-1.646v-.866a11.614,11.614,0,0,0-.1-1.685,1.96,1.96,0,0,0-.374-.963,1.337,1.337,0,0,0-.771-.442,7.683,7.683,0,0,0-2.55,0,1.4,1.4,0,0,0-.789.433,1.872,1.872,0,0,0-.4.933,9.875,9.875,0,0,0-.106,1.628v1.367a6.842,6.842,0,0,0,.115,1.385,1.811,1.811,0,0,0,.4.857,1.491,1.491,0,0,0,.791.434,5.72,5.72,0,0,0,1.251.115" transform="translate(-464.354 -595.511)"/><path class="a" d="M615.843,609.174a1.641,1.641,0,0,1-.424,1.29,2.415,2.415,0,0,1-1.54.365h-2.887a4.489,4.489,0,0,1-2.9-.74,2.75,2.75,0,0,1-.877-2.224v-.423a2.664,2.664,0,0,1,.953-2.311,5.088,5.088,0,0,1,2.974-.693,7.045,7.045,0,0,1,1.81.183,3.4,3.4,0,0,1,.962.394v-.577a4.531,4.531,0,0,0-.067-.838,1.062,1.062,0,0,0-.328-.6,1.7,1.7,0,0,0-.751-.366,5.687,5.687,0,0,0-1.339-.125q-.807,0-1.722.009t-1.569.029l.365-1.674c.36-.013.8-.022,1.328-.03s1.06-.009,1.6-.009a5.482,5.482,0,0,1,3.37.818,2.887,2.887,0,0,1,1.04,2.416Zm-6.739-1.328a1.242,1.242,0,0,0,.4,1.011,2.4,2.4,0,0,0,1.484.336h2.926v-1.771a2.34,2.34,0,0,0-.077-.635.772.772,0,0,0-.308-.433,1.676,1.676,0,0,0-.673-.24,7.2,7.2,0,0,0-1.175-.077h-.443a6.815,6.815,0,0,0-1.05.068,1.613,1.613,0,0,0-.654.231.873.873,0,0,0-.338.433,2.032,2.032,0,0,0-.1.674Z" transform="translate(-505.135 -596.525)"/><path class="a" d="M662.36,602.51a7.78,7.78,0,0,0-1.29.087,1.4,1.4,0,0,0-.789.385,1.625,1.625,0,0,0-.394.857,8.283,8.283,0,0,0-.106,1.5v1.02a7.794,7.794,0,0,0,.114,1.5,1.666,1.666,0,0,0,.414.857,1.434,1.434,0,0,0,.8.385,7.571,7.571,0,0,0,1.252.088q1.059,0,1.665-.01c.4-.007.761-.017,1.068-.029l-.347,1.675q-.5.019-1.193.029t-1.193.009a8.752,8.752,0,0,1-2.175-.23,3.114,3.114,0,0,1-1.435-.771,3.077,3.077,0,0,1-.789-1.4,7.887,7.887,0,0,1-.24-2.108v-1.02a7.9,7.9,0,0,1,.24-2.109,3.08,3.08,0,0,1,.789-1.395,3.114,3.114,0,0,1,1.435-.77,8.735,8.735,0,0,1,2.175-.231c.372,0,.8,0,1.28.01s.953.022,1.416.048l-.348,1.675q-.789-.038-1.327-.047c-.36-.007-.7-.01-1.021-.01" transform="translate(-545.183 -596.523)"/><path class="a" d="M703.168,582.256a1.086,1.086,0,1,1-.3-.973,1.33,1.33,0,0,1,.3.973M700.9,585.2h2.021v9.953H700.9Z" transform="translate(-579.155 -580.85)"/><path class="a" d="M725.664,599.556a8.767,8.767,0,0,1,2.128.222,3.071,3.071,0,0,1,1.433.769,3.253,3.253,0,0,1,.818,1.464,8.6,8.6,0,0,1,.259,2.3v1.059a8.6,8.6,0,0,1-.259,2.3,3.242,3.242,0,0,1-.818,1.463,3.062,3.062,0,0,1-1.433.77,10.334,10.334,0,0,1-4.256,0,3.073,3.073,0,0,1-1.435-.77,3.244,3.244,0,0,1-.817-1.463,8.553,8.553,0,0,1-.26-2.3v-1.059a8.547,8.547,0,0,1,.26-2.3,3.255,3.255,0,0,1,.817-1.464,3.082,3.082,0,0,1,1.435-.769,8.747,8.747,0,0,1,2.128-.222m2.579,4.755a9.83,9.83,0,0,0-.106-1.626,1.926,1.926,0,0,0-.384-.935,1.362,1.362,0,0,0-.779-.433,8.118,8.118,0,0,0-2.619,0,1.357,1.357,0,0,0-.779.433,1.916,1.916,0,0,0-.384.935,9.724,9.724,0,0,0-.106,1.626v1.059A9.723,9.723,0,0,0,723.19,607a1.921,1.921,0,0,0,.384.935,1.356,1.356,0,0,0,.779.433,8.2,8.2,0,0,0,2.619,0,1.36,1.36,0,0,0,.779-.433,1.931,1.931,0,0,0,.384-.935,9.83,9.83,0,0,0,.106-1.626Z" transform="translate(-595.429 -595.513)"/><path class="a" d="M774.631,609.816v-7.028A2.819,2.819,0,0,1,775.7,600.3a7.8,7.8,0,0,1,6.68,0,2.82,2.82,0,0,1,1.069,2.483v7.028h-2.021v-6.622a5.617,5.617,0,0,0-.058-.848,1.15,1.15,0,0,0-.29-.616,1.437,1.437,0,0,0-.711-.375,7.114,7.114,0,0,0-2.658,0,1.439,1.439,0,0,0-.712.375,1.157,1.157,0,0,0-.289.616,5.5,5.5,0,0,0-.057.848v6.622Z" transform="translate(-638.214 -595.511)"/><path class="a" d="M834.117,609.174a1.641,1.641,0,0,1-.424,1.29,2.416,2.416,0,0,1-1.54.365h-2.887a4.489,4.489,0,0,1-2.9-.74,2.75,2.75,0,0,1-.877-2.224v-.423a2.664,2.664,0,0,1,.953-2.311,5.089,5.089,0,0,1,2.975-.693,7.042,7.042,0,0,1,1.81.183,3.393,3.393,0,0,1,.962.394v-.577a4.525,4.525,0,0,0-.068-.838,1.06,1.06,0,0,0-.328-.6,1.7,1.7,0,0,0-.751-.366,5.683,5.683,0,0,0-1.338-.125q-.807,0-1.723.009t-1.569.029l.365-1.674c.36-.013.8-.022,1.329-.03s1.06-.009,1.6-.009a5.482,5.482,0,0,1,3.37.818,2.887,2.887,0,0,1,1.04,2.416Zm-6.738-1.328a1.242,1.242,0,0,0,.4,1.011,2.4,2.4,0,0,0,1.484.336h2.926v-1.771a2.335,2.335,0,0,0-.078-.635.77.77,0,0,0-.308-.433,1.676,1.676,0,0,0-.673-.24,7.194,7.194,0,0,0-1.175-.077h-.443a6.81,6.81,0,0,0-1.049.068,1.615,1.615,0,0,0-.654.231.871.871,0,0,0-.338.433,2.032,2.032,0,0,0-.1.674Z" transform="translate(-678.372 -596.525)"/><rect class="a" width="2.022" height="14.304" transform="translate(157.979 0)"/></g><g transform="translate(0)"><g transform="translate(0 0)"><rect class="b" width="38.713" height="38.713"/><path class="a" d="M327.495,365.812H316.518V340.987l-3.171,3.322v24.674h17.319Z" transform="translate(-299.365 -339.868)"/><path class="a" d="M332.139,382.547v3.172h10.716V398.04l3.171,3.172V382.547Z" transform="translate(-314.203 -372.682)"/><path class="a" d="M279.65,409.247l3.171-3.326v-20.2h3.136v-3.172H279.65Z" transform="translate(-272.759 -372.684)"/></g><g transform="translate(48.018)"><path class="b" d="M487.429,359.27v15.115H481.72V335.672h14.572q7.121,0,10.22,2.665t3.1,7.939v2.392q0,5.6-3.261,8.1t-10.059,2.5ZM503.9,347.146a10.536,10.536,0,0,0-.407-3.208,3.989,3.989,0,0,0-1.305-1.957,5.1,5.1,0,0,0-2.337-.952,21.809,21.809,0,0,0-3.561-.245h-8.863v13.375h8.863a21.963,21.963,0,0,0,3.561-.243,5.093,5.093,0,0,0,2.337-.953A3.98,3.98,0,0,0,503.5,351a10.526,10.526,0,0,0,.407-3.207Z" transform="translate(-481.72 -335.672)"/><path class="b" d="M638.394,335.673v33.6h19.628l-1.033,5.11h-24.3V335.673Z" transform="translate(-600.916 -335.673)"/></g></g></svg>