<svg xmlns="http://www.w3.org/2000/svg" width="140" height="140" viewBox="0 0 140 140"><defs><style>.a{fill:#00baf2;}.b{fill:#0089b3;}.c{fill:#fc5f61;}.d{fill:#fcf8f2;}.e{fill:#e53841;}.f{fill:#00aae7;}.g{fill:#fff;}</style></defs><path class="a" d="M140,70A70,70,0,1,1,70,0,70,70,0,0,1,140,70Z"/><path class="b" d="M112.324,125.76a70.015,70.015,0,0,1-84.646,0c8.778-4.289,24.45-7.143,42.323-7.143s33.548,2.854,42.323,7.143Z"/><path class="c" d="M119.265,41.075c-9.794-54.766-88.736-54.766-98.53,0A84.922,84.922,0,0,0,70,133.7a84.8,84.8,0,0,0,50.591-77.6,85.366,85.366,0,0,0-1.326-15.022Z"/><path class="d" d="M109.61,50.257A39.606,39.606,0,1,1,74.535,10.908,39.614,39.614,0,0,1,109.61,50.257Z" transform="translate(-0.389 0.352)"/><path class="e" d="M74.864,8.072a42.729,42.729,0,0,0-10.055.035C60.3,8.659,59.019,2.084,63.4.889A25.037,25.037,0,0,1,70,0C47.817,0,25.633,13.694,20.735,41.078A84.926,84.926,0,0,0,70,133.7c-9.347-6.087-17.388-15.741-23.329-27.792A10.448,10.448,0,0,1,58.751,91.216,42.47,42.47,0,1,0,74.863,8.072Zm-.658,78.7A36.748,36.748,0,0,1,35.967,64.14s0,0,0,0A36.763,36.763,0,0,1,70,13.505a36.093,36.093,0,0,1,4.212.244,36.754,36.754,0,0,1-.007,73.023Z"/><g transform="translate(-440.36 -7232.587)"><g transform="translate(482.544 7273)"><rect class="f" width="20.398" height="20.398" transform="translate(0 0)"/><path class="g" d="M320.8,354.067h-5.784v-13.08l-1.671,1.751v13h9.125Z" transform="translate(-305.98 -340.398)"/><path class="g" d="M332.139,382.547v1.671h5.646v6.492l1.671,1.671v-9.835Z" transform="translate(-322.688 -377.349)"/><path class="g" d="M279.65,396.616l1.671-1.752V384.219h1.653v-1.671H279.65Z" transform="translate(-276.02 -377.351)"/></g><g transform="translate(507.844 7273)"><path class="f" d="M484.728,348.106v7.964H481.72v-20.4H489.4q3.752,0,5.385,1.4a5.211,5.211,0,0,1,1.633,4.183v1.26a5.039,5.039,0,0,1-1.718,4.268,8.692,8.692,0,0,1-5.3,1.318Zm8.68-6.388a5.553,5.553,0,0,0-.215-1.69,2.1,2.1,0,0,0-.688-1.031,2.69,2.69,0,0,0-1.231-.5,11.5,11.5,0,0,0-1.876-.129h-4.67v7.048h4.67a11.574,11.574,0,0,0,1.876-.128,2.683,2.683,0,0,0,1.231-.5,2.1,2.1,0,0,0,.688-1.031,5.548,5.548,0,0,0,.215-1.69Z" transform="translate(-481.72 -335.672)"/><path class="f" d="M635.693,335.673v17.705h10.342l-.544,2.693H632.685v-20.4Z" transform="translate(-615.946 -335.673)"/></g></g></svg>