<svg xmlns="http://www.w3.org/2000/svg" xmlns:xlink="http://www.w3.org/1999/xlink" width="327.395" height="152.196" viewBox="0 0 327.395 152.196"><defs><style>.a{fill:#1887b1;}.b,.c{fill:#00a6d9;}.c{mix-blend-mode:soft-light;}.c,.f{isolation:isolate;}.d,.f{fill:#f8f8f8;}.e{fill:#fd565a;}.f{mix-blend-mode:multiply;}.g{filter:url(#e);}.h{filter:url(#c);}.i{filter:url(#a);}</style><filter id="a" x="182.457" y="34.683" width="144.937" height="110.179" filterUnits="userSpaceOnUse"><feOffset dy="3" input="SourceAlpha"/><feGaussianBlur stdDeviation="3" result="b"/><feFlood flood-opacity="0.161"/><feComposite operator="in" in2="b"/><feComposite in="SourceGraphic"/></filter><filter id="c" x="0" y="19.752" width="100.174" height="125.271" filterUnits="userSpaceOnUse"><feOffset dy="3" input="SourceAlpha"/><feGaussianBlur stdDeviation="3" result="d"/><feFlood flood-opacity="0.161"/><feComposite operator="in" in2="d"/><feComposite in="SourceGraphic"/></filter><filter id="e" x="80.855" y="0" width="120.801" height="152.196" filterUnits="userSpaceOnUse"><feOffset dy="3" input="SourceAlpha"/><feGaussianBlur stdDeviation="3" result="f"/><feFlood flood-opacity="0.161"/><feComposite operator="in" in2="f"/><feComposite in="SourceGraphic"/></filter></defs><g transform="translate(-1111.168 -7991)"><g transform="translate(1302.626 8004.595)"><path class="a" d="M8,3A5.006,5.006,0,0,0,3,8V28.783H72.748V8a5.006,5.006,0,0,0-5-5H8M8,0H67.748a8,8,0,0,1,8,8V31.783H0V8A8,8,0,0,1,8,0Z" transform="translate(15.626)"/><g class="i" transform="matrix(1, 0, 0, 1, -191.46, -13.59)"><rect class="b" width="126.937" height="92.179" transform="translate(191.46 40.68)"/></g><path class="c" d="M127.543,0V92.983H0L106.384,0Z" transform="translate(0 27.088)"/><rect class="c" width="20.529" height="92.179" transform="translate(106.408 27.088)"/><path class="d" d="M12.625,44.144V31.783H0V12.361H12.625V0H32.463V12.361H45.088V31.783H32.463V44.144Z" transform="translate(19.233 52.972)"/></g><g transform="translate(1120.168 8016.752)"><g class="h" transform="matrix(1, 0, 0, 1, -9, -25.75)"><rect class="d" width="82.174" height="107.271" transform="translate(9 25.75)"/></g><g transform="translate(11.533 14.115)"><path class="e" d="M10.092,35.287v-9.88H0V9.88H10.092V0H25.95V9.88H36.042V25.406H25.95v9.88Z" transform="translate(11.533 0)"/><rect class="b" width="60.549" height="4.234" transform="translate(0 52.224)"/><rect class="b" width="60.549" height="4.234" transform="translate(0 62.104)"/><rect class="b" width="60.549" height="4.234" transform="translate(0 71.984)"/></g><path class="f" d="M82.658,0V107.913H0Z"/></g><g transform="translate(1201.023 7997)"><g class="g" transform="matrix(1, 0, 0, 1, -89.85, -6)"><rect class="d" width="102.801" height="134.196" transform="translate(89.85 6)"/></g><g transform="translate(14.428 17.657)"><path class="e" d="M12.625,44.144V31.783H0V12.361H12.625V0H32.463V12.361H45.088V31.783H32.463V44.144Z" transform="translate(14.428)"/><rect class="b" width="75.748" height="5.297" transform="translate(0 65.332)"/><rect class="b" width="75.748" height="5.297" transform="translate(0 77.693)"/><rect class="b" width="75.748" height="5.297" transform="translate(0 90.053)"/></g><path class="f" d="M103.406,0V135H0Z"/></g></g></svg>