<svg xmlns="http://www.w3.org/2000/svg" width="88" height="88" viewBox="0 0 88 88"><defs><style>.a{fill:#fdc852;}.b{fill:#fff;}</style></defs><circle class="a" cx="44" cy="44" r="44"/><path class="b" d="M16.886,45.029A5.635,5.635,0,0,1,11.257,39.4H4.221A4.226,4.226,0,0,1,0,35.179V4.222A4.226,4.226,0,0,1,4.221,0H29.55a4.227,4.227,0,0,1,4.222,4.222V35.179A4.226,4.226,0,0,1,29.55,39.4H22.514A5.636,5.636,0,0,1,16.886,45.029Zm0-8.18a2.537,2.537,0,1,0,2.537,2.536A2.539,2.539,0,0,0,16.886,36.849ZM8.207,30.76a.2.2,0,0,0-.2.2v3.406a.2.2,0,0,0,.2.2H25.565a.2.2,0,0,0,.2-.2V30.96a.2.2,0,0,0-.2-.2Zm0-16.49a.2.2,0,0,0-.2.2v4.673a.2.2,0,0,0,.2.2H14.35v6.142a.2.2,0,0,0,.2.2h4.674a.2.2,0,0,0,.2-.2V19.345h6.142a.2.2,0,0,0,.2-.2V14.471a.2.2,0,0,0-.2-.2H19.423V8.129a.2.2,0,0,0-.2-.2H14.549a.2.2,0,0,0-.2.2V14.27Z" transform="translate(61.555 66.373) rotate(180)"/></svg>